# xmcd
#
# Track frame offsets: 
#        150
#        25238
#        41973
#        64118
#        88983
#        119495
#        142600
#        164943
#        182125
#        206683
#
# Disc length: 2992 seconds
#
# Revision: 0
# Processed by: cddbd v1.5.2PL0 Copyright (c) Steve Scherf et al.
# Submitted via: ExactAudioCopy v1.0b3
#
DISCID=970bae0a
DTITLE=Che Linh - San Khau va Cuoc Doi
DYEAR=1995
DGENRE=
TTITLE0=Dan ba
TTITLE1=San khau va cuoc doi
TTITLE2=Linh hon tuong da
TTITLE3=Dong song doi toi
TTITLE4=Chiec bong ben duong
TTITLE5=Han Do Ban
TTITLE6=Mua thu nam ngoai
TTITLE7=Dong song ho hen
TTITLE8=Tinh ong buom
TTITLE9=Chuyen hop tan
EXTD=
EXTT0=
EXTT1=
EXTT2=
EXTT3=
EXTT4=
EXTT5=
EXTT6=
EXTT7=
EXTT8=
EXTT9=
PLAYORDER=
